<svg width="200" height="200" viewBox="0 0 200 200" fill="none" xmlns="http://www.w3.org/2000/svg">
<g clip-path="url(#clip0_45_2)">
<path d="M130.729 0H69.375C13.3331 0 0 13.3331 0 69.2706V130.625C0 186.666 13.2294 200 69.2706 200H130.625C186.667 200 200 186.771 200 130.729V69.375C200 13.3331 186.771 0 130.729 0ZM161.458 142.708H146.875C141.354 142.708 139.687 138.229 129.792 128.333C121.146 120 117.5 118.958 115.312 118.958C112.292 118.958 111.458 119.791 111.458 123.958V137.083C111.458 140.625 110.312 142.708 101.042 142.708C92.0458 142.104 83.3219 139.371 75.5888 134.735C67.8557 130.098 61.3346 123.691 56.5625 116.041C45.2336 101.94 37.3511 85.3906 33.5419 67.7081C33.5419 65.5206 34.375 63.5413 38.5419 63.5413H53.125C56.875 63.5413 58.2294 65.2081 59.6875 69.0625C66.7706 89.8956 78.8544 108.021 83.75 108.021C85.625 108.021 86.4581 107.188 86.4581 102.5V81.0413C85.8331 71.25 80.625 70.4163 80.625 66.875C80.6936 65.9407 81.1236 65.0699 81.8237 64.4475C82.5239 63.825 83.4391 63.5 84.375 63.5413H107.292C110.417 63.5413 111.458 65.1038 111.458 68.8538V97.8125C111.458 100.938 112.812 101.979 113.75 101.979C115.625 101.979 117.083 100.938 120.521 97.5C127.907 88.4918 133.943 78.4559 138.438 67.7081C138.896 66.4149 139.766 65.3074 140.913 64.555C142.061 63.8025 143.423 63.4465 144.792 63.5413H159.375C163.75 63.5413 164.688 65.7288 163.75 68.8538C158.444 80.7369 151.878 92.0168 144.167 102.5C142.604 104.896 141.979 106.146 144.167 108.958C145.625 111.146 150.729 115.416 154.167 119.479C159.167 124.466 163.318 130.237 166.458 136.562C167.708 140.625 165.625 142.708 161.458 142.708Z" fill="#6563FF"/>
</g>
<defs>
<clipPath id="clip0_45_2">
<rect width="200" height="200" fill="white"/>
</clipPath>
</defs>
</svg>
